<svg xmlns="http://www.w3.org/2000/svg" width="27" height="27" viewBox="0 0 27 27">
  <g id="Group_467" data-name="Group 467" transform="translate(-230 -16)">
    <rect id="Rectangle_627" data-name="Rectangle 627" width="27" height="27" rx="8" transform="translate(230 16)" fill="red"/>
    <g id="Group_466" data-name="Group 466" transform="translate(233.609 21.078)">
      <path id="Rectangle_615" data-name="Rectangle 615" d="M.6,0h0a.6.6,0,0,1,.6.6V2.854a.6.6,0,0,1-.6.6h0a.6.6,0,0,1-.6-.6V.6A.6.6,0,0,1,.6,0Z" transform="translate(9.29 0)" fill="#fff"/>
      <path id="Path_468" data-name="Path 468" d="M95.824,28.348a.6.6,0,0,1-.517-.3l-1.131-1.959a.6.6,0,0,1,.219-.816l.007,0a.6.6,0,0,1,.816.219l1.131,1.959a.6.6,0,0,1-.219.816l-.007,0a.6.6,0,0,1-.3.08" transform="translate(-89.453 -23.948)" fill="#fff"/>
      <path id="Path_469" data-name="Path 469" d="M27.749,96.433a.6.6,0,0,1-.3-.08l-1.959-1.131a.6.6,0,0,1-.219-.815l0-.007a.6.6,0,0,1,.816-.219l1.959,1.131a.6.6,0,0,1,.219.815l0,.007a.6.6,0,0,1-.517.3" transform="translate(-23.95 -89.457)" fill="#fff"/>
      <path id="Rectangle_616" data-name="Rectangle 616" d="M.6,0H2.854a.6.6,0,0,1,.6.6v0a.6.6,0,0,1-.6.6H.6A.6.6,0,0,1,0,.6v0A.6.6,0,0,1,.6,0Z" transform="translate(0 9.29)" fill="#fff"/>
      <rect id="Rectangle_617" data-name="Rectangle 617" width="3.456" height="1.202" rx="0.601" transform="translate(16.327 9.29)" fill="#fff"/>
      <path id="Path_470" data-name="Path 470" d="M312.335,96.433a.6.6,0,0,1-.518-.3l0-.007a.6.6,0,0,1,.218-.815l1.958-1.131a.6.6,0,0,1,.816.219l0,.007a.6.6,0,0,1-.218.815l-1.959,1.131a.6.6,0,0,1-.3.08" transform="translate(-296.35 -89.457)" fill="#fff"/>
      <path id="Path_471" data-name="Path 471" d="M260.141,28.348a.6.6,0,0,1-.3-.08l-.007,0a.6.6,0,0,1-.219-.816l1.131-1.959a.6.6,0,0,1,.815-.219l.007,0a.6.6,0,0,1,.219.816l-1.131,1.959a.6.6,0,0,1-.517.3" transform="translate(-246.73 -23.948)" fill="#fff"/>
      <path id="Path_472" data-name="Path 472" d="M103.654,97.791a5.292,5.292,0,0,0-10.584,0,1.739,1.739,0,0,0,0,.325v5.025h10.591V97.791Zm-4.809-3.355a3.4,3.4,0,0,0-3.551,3.186v.035l0,.017a.834.834,0,0,0,0,.134.346.346,0,0,1-.31.379l-.028,0a.346.346,0,0,1-.351-.312,1.465,1.465,0,0,1-.006-.261,4.088,4.088,0,0,1,4.231-3.871.346.346,0,0,1,.013.693" transform="translate(-88.471 -87.934)" fill="#fff"/>
    </g>
  </g>
</svg>
