<svg xmlns="http://www.w3.org/2000/svg" width="98.951" height="45.612" viewBox="0 0 98.951 45.612">
  <g id="Group_407" data-name="Group 407" transform="translate(0.5 4.026)">
    <g id="Group_404" data-name="Group 404" transform="translate(0 0)">
      <path id="Rectangle_606" data-name="Rectangle 606" d="M.661,0h0a.661.661,0,0,1,.661.661V3.14A.661.661,0,0,1,.661,3.8h0A.661.661,0,0,1,0,3.14V.661A.661.661,0,0,1,.661,0Z" transform="translate(48.314 -4.026)" fill="red"/>
      <path id="Path_456" data-name="Path 456" d="M96,28.664a.659.659,0,0,1-.569-.328l-1.244-2.155a.657.657,0,0,1,.24-.9l.008,0a.657.657,0,0,1,.9.24l1.244,2.155a.657.657,0,0,1-.24.9l-.008,0a.657.657,0,0,1-.328.088" transform="translate(-50.895 -27.849)" fill="red"/>
      <path id="Path_457" data-name="Path 457" d="M28,96.667a.657.657,0,0,1-.328-.088l-2.155-1.244a.658.658,0,0,1-.24-.9l0-.008a.657.657,0,0,1,.9-.24l2.155,1.244a.657.657,0,0,1,.24.9l0,.008a.659.659,0,0,1-.569.328" transform="translate(14.267 -93.018)" fill="red"/>
      <path id="Rectangle_607" data-name="Rectangle 607" d="M.661,0H3.14A.661.661,0,0,1,3.8.661v0a.661.661,0,0,1-.661.661H.661A.661.661,0,0,1,0,.661v0A.661.661,0,0,1,.661,0Z" transform="translate(38.093 6.195)" fill="red"/>
      <rect id="Rectangle_608" data-name="Rectangle 608" width="3.802" height="1.323" rx="0.661" transform="translate(56.056 6.195)" fill="red"/>
      <path id="Path_458" data-name="Path 458" d="M312.4,96.667a.659.659,0,0,1-.569-.328l0-.008a.657.657,0,0,1,.24-.9l2.155-1.244a.657.657,0,0,1,.9.24l0,.008a.657.657,0,0,1-.24.9l-2.155,1.244a.657.657,0,0,1-.328.088" transform="translate(-256.716 -93.018)" fill="red"/>
      <path id="Path_459" data-name="Path 459" d="M260.2,28.664a.657.657,0,0,1-.328-.088l-.008,0a.658.658,0,0,1-.241-.9l1.244-2.155a.657.657,0,0,1,.9-.24l.008,0a.658.658,0,0,1,.241.9l-1.244,2.155a.659.659,0,0,1-.569.328" transform="translate(-207.354 -27.849)" fill="red"/>
      <path id="Path_460" data-name="Path 460" d="M104.715,98.321a5.822,5.822,0,0,0-11.644,0,1.911,1.911,0,0,0,0,.358v5.529h11.652V98.321Zm-5.291-3.691a3.735,3.735,0,0,0-3.907,3.5v.038l0,.018a.917.917,0,0,0,.005.147.381.381,0,0,1-.341.417l-.031,0a.381.381,0,0,1-.386-.343,1.61,1.61,0,0,1-.007-.287,4.5,4.5,0,0,1,4.654-4.259.381.381,0,0,1,.014.762" transform="translate(-49.918 -91.503)" fill="red"/>
      <path id="Path_461" data-name="Path 461" d="M101.562,323.4H69.439l-65.828.287a5.159,5.159,0,0,1,5.159-5.159l87.632-.34a5.159,5.159,0,0,1,5.159,5.159Z" transform="translate(-3.611 -302.481)" fill="#5a607f" stroke="rgba(0,0,0,0)" stroke-width="1"/>
      <rect id="Rectangle_610" data-name="Rectangle 610" width="97.951" height="21.358" transform="translate(0 20.228)" fill="#5a607f"/>
    </g>
    <text id="נכס_לאומי" data-name="נכס לאומי" transform="translate(4.929 34.862)" fill="#fff" font-size="26" font-family="FbMetali-Regular, FbMetali"><tspan x="0" y="0">נכס לאומי</tspan></text>
  </g>
</svg>
