<?xml version="1.0" encoding="UTF-8"?>
<svg xmlns="http://www.w3.org/2000/svg" fill='white' id="Layer_1" data-name="Layer 1" viewBox="0 0 24 24">
  <path d="m10.239,14.782c.487.477,1.128.714,1.767.714.632,0,1.262-.233,1.736-.697l3.207-2.849c1.322-1.322,2.051-3.08,2.051-4.95s-.729-3.627-2.051-4.95c-1.321-1.322-3.079-2.05-4.949-2.05s-3.628.728-4.95,2.05c-2.729,2.729-2.729,7.17.021,9.92l3.168,2.812ZM7.757,2.757c1.134-1.133,2.641-1.757,4.243-1.757s3.109.624,4.242,1.757c1.134,1.133,1.758,2.64,1.758,4.243s-.624,3.109-1.736,4.222l-3.203,2.845c-.584.573-1.536.57-2.14-.017l-3.164-2.808c-2.339-2.339-2.339-6.146,0-8.485Zm4.243,7.223c1.648,0,2.99-1.341,2.99-2.99s-1.342-2.99-2.99-2.99-2.99,1.341-2.99,2.99,1.342,2.99,2.99,2.99Zm0-4.98c1.098,0,1.99.893,1.99,1.99s-.893,1.99-1.99,1.99-1.99-.893-1.99-1.99.893-1.99,1.99-1.99Zm12,12.016c0,.176-.092.339-.243.429l-10.31,6.186c-.446.268-.946.402-1.447.402s-1.001-.135-1.447-.402L.243,17.444c-.151-.09-.243-.253-.243-.429s.092-.339.243-.429l5-3c.234-.143.544-.065.686.172.143.236.065.544-.172.686l-4.285,2.571,9.595,5.757c.576.346,1.291.346,1.867,0l9.595-5.757-4.311-2.587c-.237-.142-.314-.449-.172-.686.143-.237.452-.314.686-.172l5.025,3.016c.151.091.243.253.243.429Z"/>
</svg>
